<?xml version="1.0"?>
<svg width="640" height="512" xmlns="http://www.w3.org/2000/svg" xmlns:svg="http://www.w3.org/2000/svg">
 <!--! Font Awesome Pro 6.4.0 by @fontawesome - https://fontawesome.com License - https://fontawesome.com/license (Commercial License) Copyright 2023 Fonticons, Inc. -->
 <g class="layer">
  <title>Layer 1</title>
  <path d="m312,32c-13.3,0 -24,10.7 -24,24s10.7,24 24,24l25.7,0l34.6,64l-149.4,0l-27.4,-38c-4.5,-6.3 -11.8,-10 -19.5,-10l-56,0c-13.3,0 -24,10.7 -24,24s10.7,24 24,24l43.7,0l22.1,30.7l-26.6,53.1c-10,-2.5 -20.5,-3.8 -31.2,-3.8c-70.7,0 -128,57.3 -128,128s57.3,128 128,128c65.3,0 119.1,-48.9 127,-112l49,0c8.5,0 16.3,-4.5 20.7,-11.8l84.8,-143.5l21.7,40.1c-28.8,23.5 -47.2,59.2 -47.2,99.2c0,70.7 57.3,128 128,128s128,-57.3 128,-128s-57.3,-128 -128,-128c-13.5,0 -26.5,2.1 -38.7,6l-97.9,-181.2c-5.6,-10.4 -16.4,-16.8 -28.2,-16.8l-35.2,0zm146.6,271.7l32.3,59.7c6.3,11.7 20.9,16 32.5,9.7s16,-20.9 9.7,-32.5l-32.3,-59.7c3.6,-0.6 7.4,-0.9 11.2,-0.9c39.8,0 72,32.2 72,72s-32.2,72 -72,72s-72,-32.2 -72,-72c0,-18.6 7,-35.5 18.6,-48.3zm-325.4,64.3l65,0c-7.3,32.1 -36,56 -70.2,56c-39.8,0 -72,-32.2 -72,-72s32.2,-72 72,-72c1.7,0 3.4,0.1 5.1,0.2l-24.2,48.5c-9,18.1 4.1,39.4 24.3,39.4l0,-0.1zm33.7,-48l50.7,-101.3l72.9,101.2l-0.1,0.1l-123.6,0l0.1,0zm90.6,-128l108.4,0l-48.9,82.8l-59.6,-82.8l0.1,0z" fill="#77c5e6" id="svg_1"/>
 </g>
</svg>