<?xml version="1.0"?>
<svg width="384" height="512" xmlns="http://www.w3.org/2000/svg" xmlns:svg="http://www.w3.org/2000/svg">
 <!--! Font Awesome Pro 6.4.0 by @fontawesome - https://fontawesome.com License - https://fontawesome.com/license (Commercial License) Copyright 2023 Fonticons, Inc. -->
 <g class="layer">
  <title>Layer 1</title>
  <path d="m297.2,248.9c14.4,-20.6 22.8,-45.7 22.8,-72.9c0,-70.7 -57.3,-128 -128,-128s-128,57.3 -128,128c0,27.2 8.4,52.3 22.8,72.9c3.7,5.3 8.1,11.3 12.8,17.7l0,0c12.9,17.7 28.3,38.9 39.8,59.8c10.4,19 15.7,38.8 18.3,57.5l-48.7,0c-2.2,-12 -5.9,-23.7 -11.8,-34.5c-9.9,-18 -22.2,-34.9 -34.5,-51.8l0,0l0,0c-5.2,-7.1 -10.4,-14.2 -15.4,-21.4c-19.7,-28.3 -31.3,-62.9 -31.3,-100.2c0,-97.2 78.8,-176 176,-176s176,78.8 176,176c0,37.3 -11.6,71.9 -31.4,100.3c-5,7.2 -10.2,14.3 -15.4,21.4l0,0l0,0c-12.3,16.8 -24.6,33.7 -34.5,51.8c-5.9,10.8 -9.6,22.5 -11.8,34.5l-48.5,0c2.6,-18.7 7.9,-38.6 18.3,-57.5c11.5,-20.9 26.9,-42.1 39.8,-59.8l0,0l0,0l0,0c4.7,-6.4 9,-12.4 12.7,-17.7l0,-0.1zm-105.2,-120.9c-26.5,0 -48,21.5 -48,48c0,8.8 -7.2,16 -16,16s-16,-7.2 -16,-16c0,-44.2 35.8,-80 80,-80c8.8,0 16,7.2 16,16s-7.2,16 -16,16zm0,384c-44.2,0 -80,-35.8 -80,-80l0,-16l160,0l0,16c0,44.2 -35.8,80 -80,80z" fill="#77c5e6" id="svg_1"/>
 </g>
</svg>